<svg xmlns="http://www.w3.org/2000/svg" xmlns:xlink="http://www.w3.org/1999/xlink" version="1.2" viewBox="4 3.99 482.68 110.75">
 <defs/>
 <g transform="matrix(1.741 0 0 1.741 -74.96 -737.07)" stroke-width=".57437">
  <path d="m302.55 425.75 20.051 31.719-20.117 31.785-20.32-31.652 20.387-31.852" fill="#008ac5"/>
  <path d="m232.39 427.96-2.2539 10.773-3.582 15.902c-3.9141 17.531-6.3672 24.57-13.363 29.359-6.1016 4.2734-14.383 5.1836-21.578 5.1836-8.0117 0-14.508-1.1367-18.656-3.3633-9.125-4.7031-9.8984-12.453-9.9961-14.762-0.21484-5.043 0.94922-10.773 2.0547-15.734l3.8594-16.672 2.582-10.688h20.273l-3.1602 14.277-3.0742 13.512c-1.6875 7.8633-2.1914 11.199-2.0664 14.109 0.21484 5.043 4.6992 5.9688 8.2383 6.25 3.4727 0.27344 8.7422-0.18359 10.539-4.7188 0.75782-1.9102 1.3125-3.9922 2.6445-8.8711 2.6602-9.7578 5.6289-23.016 5.6289-23.016l2.7227-11.543h19.188" fill="#008ac5"/>
  <path d="m244.7 462.24c1.332 1.375 2.9805 1.9023 5.0312 1.4844 1.5859-0.32422 2.8359 1.2461 2.8203 2.4375-0.0156 1.1875-0.98437 2.6562-2.9883 2.8086-2.4453 0.18359-3.8008 0.64844-4.543 1.125-0.95703 0.61719-2.4922 2.7109-2.957 4.1094-8e-3 0.0234 0.85547 0.10547 1.293 0.19532-0.35547 1.1211-0.30078 2.8594-0.16797 3.7188 0.42969-0.4375 0.90235-0.82813 1.4062-1.1758-0.26562 0.55859-0.44922 2.2891-0.41797 3.1562 0.53125-0.42579 1.1094-0.79297 1.7188-1.0977-0.52343 1.0117-0.74609 2.7344-0.74609 2.7617 0.58203-0.10547 1.1797-0.15235 1.7891-0.14453-1.1328 0.41406-1.6211 1.1016-1.6992 1.832-0.77343 0.37109-1.3086 1.1602-1.3086 2.0781 0 1.0742 0.73438 1.9766 1.7344 2.2305-0.14844-0.44531-0.0664-1.2383 0.15234-1.5859 0.15625-0.1875 0.37891-0.3164 0.62891-0.35546 0.45312 0.15625 1.3633 0.0937 2.082-0.50782 1.3398 0.72657 2.25 2.1445 2.25 3.7774 0 0.0586 0 0.11718-4e-3 0.17578 1.1836-0.72266 1.9883-2 2.0508-3.4727 1.6992 0.50391 1.957 2.3516 1.4336 3.2969 1.0391-0.61719 1.7344-1.7461 1.7344-3.0391 0-0.65234-0.17578-1.2617-0.48437-1.7852 0.91015 0.39453 1.5976 1.1992 1.8242 2.1836 0.17188-0.42969 0.26563-0.89453 0.26563-1.3828 0-1.9219-1.4453-3.5078-3.3086-3.7266-0.5-0.31641-1.0898-0.5-1.7227-0.5-0.59766 0-1.1562 0.16015-1.6367 0.44531l-1.6211-5.4961c0.51562 0.36328 1.7344 0.96093 1.7617 0.97265 0.0977-0.90234 0.33203-1.8047 0.70703-2.6836 1.7695 1.2656 3.9766 1.5469 4.0039 1.5508-0.082-0.54688-0.11718-1.1055-0.0977-1.6719 1.8711 1.1445 4.2422 1.1914 4.2695 1.1914-0.48828-1.7461-0.28516-3.3203-0.043-4.6719 0.24219-1.3516 0.39062-2.1797 0.42969-2.2812 0.11718-4e-3 0.92187-0.10157 1.4922 0.39453 0.56641 0.49609 0.51954 1.8125 0.4336 2.418-0.35156 2.5234 0.14062 7.9688 0.14453 7.9961 0.66016-0.32031 1.3633-0.56641 2.1055-0.73047-0.0586 0.86719 0.18359 2.3516 0.1875 2.3789 0.46094-0.2461 0.94531-0.45703 1.4531-0.62891 0.0234 0.42188 0.0781 0.84766 0.16407 1.2773 0 4e-3 4e-3 0.0117 4e-3 0.0156-0.33984 0.3125-0.57031 0.74609-0.625 1.2305-0.77344 0.37109-1.3047 1.1602-1.3047 2.0742 0 1.0781 0.73438 1.9805 1.7305 2.2305-0.14062-0.3125-0.082-1.2031 0.15625-1.5859 0.15625-0.1875 0.375-0.3125 0.625-0.35156 0.40235 0.17578 1.5274 0.0664 2.0859-0.51172 1.3398 0.73047 2.25 2.1445 2.25 3.7773 0 0.0586-4e-3 0.12109-4e-3 0.17969 1.1797-0.72266 1.9883-2.0039 2.0508-3.4766 0.97265 0.28125 1.6836 1.1797 1.6836 2.2422 0 0.37891-0.0898 0.73828-0.25 1.0547 1.0391-0.61328 1.7344-1.7461 1.7344-3.0391 0-0.65235-0.17968-1.2578-0.48437-1.7852 0.91016 0.39453 1.5938 1.2031 1.8242 2.1875 0.16797-0.42969 0.26562-0.89844 0.26562-1.3867 0-1.9219-1.4453-3.5039-3.3086-3.7266-0.5-0.31641-1.0898-0.5-1.7227-0.5-0.49218 0-0.95703 0.10938-1.3711 0.30469 0 0-1.9766-2.082-3.1953-4.4883 0.65625-0.3086 1.9141-1.2031 1.9336-1.2188-0.59375-0.40625-1.1484-0.88672-1.6523-1.4414 1.1133 8e-3 3.082-0.76172 3.1055-0.77344-0.59375-0.69922-1.3164-1.8438-1.5547-2.5859 0.71875-0.19922 1.4453-0.30469 2.168-0.32813 0-0.62891-2.3633-4.3438-4.6289-6.0898-3.2578-2.5195-6.1914-4.1016-6.1914-4.1016v-4e-3l0.375-2.2266c0.67969 0.49218 1.4375 0.90625 2.2656 1.2109 0.0234 0.0117 0.0508 0.0195 0.0781 0.0274 0.0391-0.66407 0.14844-1.332 0.33204-1.9961l1.3945 0.91797c-0.0117 0.28906 0.0391 0.58594 0.16406 0.86719 0.125 0.27344 0.30469 0.50391 0.51562 0.68359-0.0156 0.0899-0.0273 0.1836-0.0312 0.27735-0.0391 1.0703 0.78907 1.9688 1.8555 2.0117 0.33203 0.0117 0.64844-0.0586 0.92578-0.19532-0.71875-0.21484-1.2422-0.88281-1.25-1.6641 0.17579-0.0234 0.35157-0.0703 0.52344-0.14844 0.0937-0.043 0.1836-0.0898 0.26563-0.14453 0.3125 0.47266 0.82812 0.75781 1.375 0.78516 0.0391 0 0.0742 0 0.11328 4e-3 0.5 0.0274 0.96484 0.32813 1.1836 0.81641 0.22266 0.49609 0.12891 1.0586-0.19922 1.4531 0.0899-0.0274 0.1836-0.0625 0.27344-0.10157 1.125-0.5039 1.625-1.8281 1.1211-2.9492-0.15234-0.33984-0.375-0.62109-0.64843-0.83593 0.0117-0.1836 0-0.375-0.0469-0.5586 0.0899-0.0664 0.1875-0.12109 0.29297-0.16797 0.88672-0.39843 1.9258-4e-3 2.3242 0.88282 0.0937 0.20703 0.14062 0.42187 0.15234 0.63281 0.53125-0.66016 0.6836-1.5859 0.3125-2.4102-0.39062-0.86328-1.2422-1.375-2.1328-1.3711 0.0234-0.14063 0.0352-0.28125 0.0352-0.42578 0.0664-0.043 0.14062-0.082 0.21875-0.11719 0.78515-0.35156 1.6914-0.0781 2.1641 0.60547-0.0352-0.26172-0.10938-0.52344-0.22266-0.77734-0.58203-1.2891-1.9883-1.9414-3.3125-1.6172-0.58984-0.32422-1.3164-0.37891-1.9726-0.082-0.45703 0.20312-0.8086 0.54297-1.0312 0.94922l-1.3711-0.90625c0.57032-0.25391 1.6836-0.98047 1.707-0.9961-0.32031-0.24609-0.6289-0.51562-0.92187-0.80469 0.89062-0.30859 2.1523-1.1797 2.1758-1.1953-0.39062-0.29297-0.76172-0.625-1.1094-0.98828 0.94531-0.49219 2.2383-2.0781 2.2539-2.0977-0.73047-0.28125-1.4375-0.66015-2.1016-1.1367l1.0977-0.97266c0.25 0.0937 0.52343 0.14062 0.80859 0.125 0.29687-0.0156 0.57812-0.10156 0.82031-0.23828 0.082 0.0469 0.16406 0.0898 0.25 0.1289 0.98438 0.41797 2.1211-0.0391 2.5391-1.0195 0.13282-0.30468 0.17579-0.625 0.14844-0.93359-0.46094 0.59766-1.2656 0.84766-2 0.57812 0.043-0.17578 0.0586-0.35546 0.0469-0.54296-4e-3 -0.10157-0.0195-0.20313-0.0391-0.29688 0.55079-0.125 1-0.50781 1.2227-1.0078 0.0117-0.0352 0.0273-0.0703 0.043-0.10547 0.20312-0.45703 0.64844-0.78516 1.1836-0.81641 0.54297-0.0312 1.0352 0.25782 1.2852 0.70703 8e-3 -0.0976 0.0117-0.19531 4e-3 -0.29296-0.0703-1.2305-1.125-2.1719-2.3555-2.1016-0.3711 0.0234-0.71485 0.13672-1.0156 0.3125h4e-3c-0.16797-0.0781-0.35156-0.13281-0.53906-0.15625-0.0274-0.10547-0.0469-0.21875-0.0547-0.33593-0.0547-0.96875 0.68359-1.8008 1.6523-1.8555 0.22656-0.0117 0.44531 0.0156 0.64844 0.082-0.42578-0.73047-1.2422-1.1992-2.1445-1.1484-0.94531 0.0547-1.7266 0.67188-2.0391 1.5039-0.1211-0.0703-0.25-0.13282-0.38282-0.17969-0.0156-0.082-0.0273-0.16406-0.0312-0.25-0.0508-0.85938 0.52344-1.6094 1.332-1.8086-0.25781-0.0586-0.52734-0.082-0.80468-0.0664-1.4102 0.082-2.5234 1.1641-2.6914 2.5195-0.51172 0.43359-0.82031 1.0938-0.77734 1.8164 0.0312 0.49218 0.21484 0.9375 0.50781 1.2891 0 0-2.1602 1.9141-2.1641 1.9102 0.19922-0.6211 0.39453-2.0078 0.39843-2.0352-3.6133 0.59375-6.6641-0.90625-6.6641-0.90625 0.4375-8e-3 2.6875-1.0273 2.8398-1.1055 0.0625-0.27344 0.10937-0.55859 0.13671-0.84375 0.95313-0.47266 1.9609 0.13281 3.207-0.42578 1.2422-0.55469 2.0234-1.9648 1.5938-3.7109-0.27735-1.1211-1.3633-1.8984-2.2734-1.9375-0.91016-0.0351-1.4375 0.21875-1.5742 0.28906 0.85156 0.16797 1.5781 0.86719 1.5781 2.1367 0 1.1367-1.3906 1.7656-1.8789 1.7656 0.15625-0.46094 0.14453-2.0664-0.0195-2.6094-1.168-0.28906-2.6445-1.4375-3.4102-2.2422-0.47656-2.625-2.5781-4.6602-2.8477-4.9062-0.0508 0.5-0.30078 1.5859-0.3164 1.6367-1.3828-1.3633-4.2305-1.5859-5.0977-1.5703 0.6211 0.8086 1.1094 1.7109 1.4492 2.6758-2.6094-1.0976-5.3242-0.55468-6.1562-0.3125 0.87109 0.66407 1.6211 1.4766 2.2188 2.3984-2.5625 0.12891-4.7617 1.7734-5.4102 2.3477 1.1367 0.23828 2.2266 0.68359 3.2109 1.3164-1.8438 1.043-3.1953 3.6836-3.207 3.707 0.90625 0.14844 2.5469 0.71094 3.2695 1.1836-0.94922 0.12109-1.9141 0.0976-2.8594-0.0664 0.39062 0.77344 2.1055 3.3203 3.8867 4.043-0.97657 0.0469-1.9531-0.0586-2.8945-0.30859 0.32032 0.80468 1.5039 3.207 3.7305 4.4922-0.67968 0.0899-1.3711 0.10547-2.0547 0.0469 0.45703 0.73828 2.2578 3.0117 4.3555 3.8203-0.69531 0.25-1.418 0.42188-2.1523 0.50781 0.59375 0.63282 2.4609 2.1875 3.9844 2.5234-0.58204 0.51172-1.2266 0.94531-1.918 1.2969 0.77734 0.38672 2.6367 0.85547 2.6953 0.86328l-0.17578 1.0781c-1.0859 0.53125-1.8438 1.2109-2.6367 2.3828-0.60156 0.89453-2.2031 1.3359-3.1914 1.0859-1.1289-0.28125-1.2266-1.1914-1.0039-2.0234 0.17968-0.81641 0.73437-2.3438 1.3008-3.5391 0.84765-1.7695 0.44922-3.6875-0.33594-4.7539-1.2461-1.6914-2.125-1.7695-3.7383-1.8008-1.9492-0.043-3.332-1.8281-2.6562-3.7305 0.35156-0.99219 0.43359-2.2539-0.1875-3.5977-0.36328-0.78906-1.1797-2.1016-2.8516-2.0586-1.6602 0.0391-2.9531 1.4102-2.9531 2.7539 0 1.2891 0.97266 2.3477 2.2227 2.4883-0.23828-0.30859-0.375-0.69531-0.38281-1.1133-8e-3 -0.3164 0.11328-1.3711 0.96484-1.3242 0.85156 0.0469 1.2617 1.0742 0.57422 2.5781-0.73438 1.8555 0 3.2773 0.51562 3.9688 0 0 0.44532 0.64062 1.5156 1.5117-0.53125 0.52734-1.2539 1.5273-0.53125 3.0664 0.74219 1.6055 0.0742 2.5078-0.58985 2.5078-0.66015 0-0.9414-0.60547-0.96484-1.3242-0.0156-0.42188 0.14453-0.8086 0.38281-1.1172-1.25 0.14063-2.2226 1.2031-2.2226 2.4883 0 1.4688 1.4531 2.7578 2.9531 2.7578 1.3281 0 2.3164-0.85156 2.8516-2.0586 0.71485-1.6055 0.31641-2.6328 8e-3 -3.7773-0.3086-1.1445 0.55859-1.6328 1.6172-1.4258 1.0078 0.19531 1.6797 1.5195 1.1719 2.6875-0.28125 0.64453-1.0625 2.2891-1.2578 2.8945-0.67188 2.0391-0.8086 4.2344 0.23437 5.3086" fill="#7fb8e6"/>
  <path d="m104.81 470.94c1.4648 1 2.2422 1.4961 4.3984 2.5977 4.7344 2.2852 12.031 2.6641 15.047 2.6641 8.7227 0 10.656-3.793 10.656-5.9961 0-3.1328-4.3672-4.9023-9.4297-7.1914l-3.5547-1.6094c-5.6016-2.543-13.406-6.9688-13.406-15.141 0-6.9492 4.2539-11.469 6.082-12.996 6.5703-5.7617 15.941-6.9844 23.801-6.9844 9.1602 0 19.492 3.7734 23.477 5.2969l-3.6602 13.387c-1.293-1.0156-2.5859-1.8359-3.9844-2.6016-3.9844-2.2031-10.555-3.9258-13.352-3.9258-5.2812 0-8.7812 2.2852-8.7812 5.168 0 2.543 2.4258 4.4883 9.3164 7.3672l2.1562 0.93359c5.0586 2.2031 15.195 6.8828 15.195 16.035 0 12.121-12.453 21.242-33.344 21.242-8.5625 0-22.348-1.8633-24.879-3.0625l4.2617-15.184" fill="#008ac5"/>
  <path d="m97.488 478.46c-0.60547 2.2891-2.1328 7.5938-2.1328 7.5938-3.8398 1.5234-9.4258 2.7266-17.512 2.7266-22.238 0-32.488-12.664-32.488-27.832 0-17.289 12.48-35.297 40.48-35.297 3.8398 0 8.043 0.44922 11.773 1.2539 3.1445 0.67969 6.6055 2.0117 9.5352 3.6094l-3.6641 14.117c-1.8203-1.4414-6.6797-4.9297-14.867-4.9297-15.262 0-20.961 13.188-20.961 20.645 0 8.9844 6.1836 14.652 15.785 14.652 7.3789 0 12.746-2.75 15.98-4.5273 0 0-1.2227 5.7031-1.9297 7.9883" fill="#008ac5"/>
 </g>
</svg>