<svg xmlns:rdf="http://www.w3.org/1999/02/22-rdf-syntax-ns#" xmlns="http://www.w3.org/2000/svg" xmlns:cc="http://creativecommons.org/ns#" xmlns:dc="http://purl.org/dc/elements/1.1/" id="svg4136" version="1.1" viewBox="0 0 532.53 319.52">
 <g id="layer1" transform="translate(367.69 123.11)">
  <rect id="rect4684-1" height="319.52" width="532.53" y="-123.11" x="-367.69" fill="#dc0000"/>
  <g id="layer1-5" transform="matrix(1.065 0 0 1.065 1132.5 -355.34)">
   <g id="layer1-6" transform="translate(-878.15,168.15)"/>
  </g>
  <g id="layer1-8" transform="matrix(0.694 0 0 0.694 -307.75 -20.218)">
   <g id="Layer_x0020_1-9" fill-rule="evenodd" transform="matrix(.000035433 0 0 .000035433 .00054623 -6.0255)">
    <g id="_89729424-1" fill="#fff">
     <path id="_47141144-7" d="m1.595e7 4.0858e6c2.5803e5 0 5.0337e5 -2.0407e5 5.4427e5 -4.6118e5 43470-2.7339e5 -1.4594e5 -4.7335e5 -4.121e5 -4.7335e5 -2.4168e5 0-4.8425e5 2.122e5 -5.2383e5 4.6115e5 -41530 2.6118e5 1.2949e5 4.7338e5 3.9166e5 4.7338e5zm-2.2679e6 -44910h1.4746e6l1.0973e5 -7.2637e5h-6.809e5l70890-4.693e5h6.1084e5l1.0973e5 -7.2635e5h-6.1091e5l64700-4.2854e5h6.809e5l1.097e5 -7.2634e5h-1.4746e6l-4.6465e5 3.0769e6zm-1.5353e5 0-4.6774e5 -1.5915e6 8.5852e5 -1.4854e6h-8.3649e5l-6.3357e5 1.3099e6 1.939e5 -1.3099e6h-7.9368e5l-4.6468e5 3.0769e6h7.9375e5l2.1318e5 -1.4119e6 2.848e5 1.4119e6h8.5201e5zm-4.528e6 0h7.6258e5l1.3618e5 -9.0182e5c43760-2.8981e5 51890-5.7543e5 76180-8.6514e5l3.3235e5 1.767e6h7.6255e5l4.6468e5 -3.0769e6h-7.6258e5l-1.1831e5 7.8349e5c-53610 3.5501e5 -48280 7.0594e5 -70790 1.061e6l-3.6336e5 -1.8445e6h-7.548e5l-4.6468e5 3.0769e6zm-1.4004e6 0 1.0964e5 -7.2637e5h-5.9529e5l3.5498e5 -2.3505e6h-7.9368e5l-4.6468e5 3.0769e6h1.389e6zm-3.7265e6 0h1.4746e6l1.097e5 -7.2637e5h-6.8086e5l70880-4.693e5h6.1084e5l1.097e5 -7.2635e5h-6.1091e5l64730-4.2854e5h6.8087e5l1.0973e5 -7.2634e5h-1.4746e6l-4.6468e5 3.0769e6zm-3.1597e5 0 4.6461e5 -3.0769e6h-7.9368e5l-4.6468e5 3.0769e6h7.9375e5zm-1.9146e6 -2.3097e6c3.618e5 0 3.5383e5 4.6519e5 3.0331e5 7.9984e5 -43750 2.8971e5 -1.7752e5 7.6309e5 -5.3996e5 7.6714e5l2.3665e5 -1.567e6zm-1.1426e6 2.3097e6h6.9259e5c4.8243e5 0 1.3542e6 -1.3057e5 1.5687e6 -1.5507e6 1.405e5 -9.304e5 -2.558e5 -1.5262e6 -1.1584e6 -1.5262e6h-6.3809e5l-4.6468e5 3.0769e6zm8.179e6 0 3.9147e5 -2.5137e6h-7.9368e5l-3.9154e5 2.5137e6h7.9375e5z"/>
     <polygon id="_48064328-6" points="9.0945e6 1.374e6 9.2301e6 5e5 9.2301e6 5e5 7.6973e6 9.6334e5"/>
    </g>
   </g>
  </g>
 </g>
</svg>