<?xml version="1.0" encoding="UTF-8" standalone="no"?>
<svg
   xmlns:dc="http://purl.org/dc/elements/1.1/"
   xmlns:cc="http://creativecommons.org/ns#"
   xmlns:rdf="http://www.w3.org/1999/02/22-rdf-syntax-ns#"
   xmlns:svg="http://www.w3.org/2000/svg"
   xmlns="http://www.w3.org/2000/svg"
   xmlns:sodipodi="http://sodipodi.sourceforge.net/DTD/sodipodi-0.dtd"
   xmlns:inkscape="http://www.inkscape.org/namespaces/inkscape"
   version="1.0"
   width="3090.1992pt"
   height="1949.9875pt"
   viewBox="0 0 2678.1727 1689.9892"
   preserveAspectRatio="xMidYMid meet"
   id="svg10"
   sodipodi:docname="AfD-Logo-2017.svg"
   inkscape:version="0.92.1 r15371">
  <metadata
     id="metadata16">
    <rdf:RDF>
      <cc:Work
         rdf:about="">
        <dc:format>image/svg+xml</dc:format>
        <dc:type
           rdf:resource="http://purl.org/dc/dcmitype/StillImage" />
        <dc:title></dc:title>
      </cc:Work>
    </rdf:RDF>
  </metadata>
  <defs
     id="defs14" />
  <sodipodi:namedview
     pagecolor="#ffffff"
     bordercolor="#666666"
     borderopacity="1"
     objecttolerance="10"
     gridtolerance="10"
     guidetolerance="10"
     inkscape:pageopacity="0"
     inkscape:pageshadow="2"
     inkscape:window-width="1920"
     inkscape:window-height="1001"
     id="namedview12"
     showgrid="false"
     inkscape:snap-global="true"
     inkscape:measure-start="3107.25,1023.39"
     inkscape:measure-end="0,0"
     scale-x="1e-005"
     fit-margin-top="0"
     fit-margin-left="0"
     fit-margin-right="0"
     fit-margin-bottom="0"
     inkscape:zoom="0.26969201"
     inkscape:cx="2324.1422"
     inkscape:cy="1262.7749"
     inkscape:window-x="-9"
     inkscape:window-y="-9"
     inkscape:window-maximized="1"
     inkscape:current-layer="layer1" />
  <g
     transform="matrix(0.1,0,0,-0.1,-36.609525,1716.3905)"
     id="g8"
     style="fill:#000000;stroke:none" />
  <g
     inkscape:groupmode="layer"
     id="layer1"
     inkscape:label="Ebene1"
     transform="translate(-36.609525,-33.6095)">
    <path
       style="opacity:1;vector-effect:none;fill:#009fe1;fill-opacity:1;fill-rule:nonzero;stroke:none;stroke-width:9.00716591;stroke-linecap:butt;stroke-linejoin:miter;stroke-miterlimit:4;stroke-dasharray:none;stroke-dashoffset:0;stroke-opacity:1"
       d="M 0 0 L 0 2024.6152 L 3389.0508 2024.6152 C 3487.3463 1954.4834 3566.6245 1895.5432 3629.5371 1846.5645 L 3629.5371 0 L 0 0 z "
       transform="matrix(0.65,0,0,0.65,36.609525,33.6095)"
       id="rect13" />
    <path
       style="opacity:1;vector-effect:none;fill:#ffffff;fill-opacity:1;fill-rule:nonzero;stroke:none;stroke-width:0.99999994;stroke-linecap:butt;stroke-linejoin:miter;stroke-miterlimit:4;stroke-dasharray:none;stroke-dashoffset:0;stroke-opacity:1"
       d="M 1969.8398 206.63281 C 1945.546 206.86046 1920.3084 209.53831 1894.9238 214.61523 C 1820.6161 229.69216 1752.1535 266.30739 1699.2305 319.23047 C 1656.4612 361.9997 1626.4623 408.46199 1610.9238 456.1543 C 1594.9238 505.53891 1590.7695 550.15415 1590.7695 678.76953 L 1590.7695 749.23047 L 1537.6914 749.23047 L 1484.6152 749.23047 L 1484.6152 873.8457 L 1484.6152 998.46094 L 1537.6914 998.46094 L 1590.7695 998.46094 L 1590.7695 1300 L 1590.7695 1601.5391 L 1741.5391 1601.5391 L 1892.3086 1601.5391 L 1892.3086 1300 L 1892.3086 998.46094 L 1997.6914 998.46094 L 2103.0762 998.46094 L 2103.0762 873.8457 L 2103.0762 749.23047 L 1997.5391 749.23047 L 1892 749.23047 L 1892.7695 661.8457 C 1893.2311 605.07647 1894.1535 570.61553 1895.2305 563.38477 C 1904.1535 508.76938 1925.2314 481.07707 1965.5391 471.38477 C 1978.7698 468.154 2011.3837 467.69216 2027.6914 470.61523 C 2045.8453 473.846 2065.692 480.46229 2101.2305 494.92383 C 2102.6151 495.53921 2103.0762 469.07602 2103.0762 365.69141 L 2103.0762 235.8457 L 2090.6152 230.1543 C 2063.9998 218.00045 2034.924 210.61493 2002.3086 207.8457 C 1991.7317 206.93224 1980.8825 206.52933 1969.8398 206.63281 z M 2204.6152 349.07617 L 2204.6152 975.38477 L 2204.6152 1601.6914 L 2458.9238 1601.0762 C 2683.2315 1600.6146 2715.538 1600.1538 2733.8457 1598 C 2818.6149 1587.5385 2886.0008 1567.6928 2956.9238 1532.1543 C 3022.6161 1499.0774 3075.0777 1460.616 3126.9238 1407.5391 C 3174.1546 1359.0775 3210.3083 1307.9994 3239.5391 1248.4609 C 3297.2314 1130.7686 3315.9992 997.07737 3293.0762 866.1543 C 3253.5377 641.07738 3092.7701 456.46079 2872.3086 383.07617 C 2827.6932 368.1531 2786.1529 359.07722 2733.6914 352.76953 C 2713.6914 350.46184 2686.1543 350.15294 2458.1543 349.69141 L 2204.6152 349.07617 z M 740.61523 349.23047 L 499.8457 974.92383 L 259.07617 1600.7695 L 430.76953 1601.2305 C 576.30799 1601.5382 602.61493 1601.2309 603.8457 1599.3848 C 604.76878 1598.154 624.46064 1549.3854 647.69141 1490.9238 L 689.8457 1384.6152 L 914.61523 1384.6152 L 1139.2305 1384.6152 L 1179.8457 1493.0762 L 1220.6152 1601.5391 L 1393.5391 1601.5391 C 1557.539 1601.5391 1566.4606 1601.3849 1565.6914 1598.7695 C 1565.076 1596.4618 1101.2312 364.76878 1096.1543 351.8457 C 1095.0774 349.38416 1085.2303 349.23047 917.8457 349.23047 L 740.61523 349.23047 z M 2532.9082 626.75391 L 2575.6777 626.75391 C 2620.9085 626.75391 2653.0622 628.44681 2678.293 632.29297 C 2820.1391 653.36989 2919.3702 739.06145 2953.0625 869.36914 C 2973.0625 947.52299 2969.9851 1041.2165 2944.9082 1114.4473 C 2913.062 1207.0626 2844.6007 1273.6777 2748.293 1305.6777 C 2697.8314 1322.6008 2653.831 1328.293 2574.1387 1328.293 L 2532.9082 1328.293 L 2532.9082 977.52344 L 2532.9082 626.75391 z M 918.29297 739.0625 C 919.0622 739.0625 949.67758 828.75451 986.29297 938.29297 L 1052.6016 1137.5234 L 917.52344 1137.5234 L 782.29297 1137.5234 L 798.29297 1090.1387 C 807.0622 1064.1387 833.67728 985.06265 857.52344 914.44727 C 881.36959 843.83188 904.44621 775.37034 908.75391 762.44727 C 913.21544 749.67803 917.36989 739.0625 918.29297 739.0625 z "
       transform="matrix(0.65,0,0,0.65,36.609525,33.6095)"
       id="rect824" />
    <path
       transform="matrix(0.1,0,0,-0.1,-1.0170993e-7,1750)"
       style="fill:#e2001a;fill-opacity:1;fill-rule:nonzero;stroke:none;stroke-width:21.69377327"
       id="path2440"
       d="m 10207.02,1382.6608 c 553.29,-1208.85937 2544.731,-1485.64609 5435.475,-595.70765 1397.605,430.29575 4391.635,1561.19385 6120.28,2770.46445 2205.937,1543.0436 3193.55,2375.5845 3460.25,2727.3292 l 1138.603,-1424.8313 786.194,4554.0536 -4692.962,401.9502 1119.6,-1448.3442 c 0,0 -1519.771,-1521.7707 -3988.74,-2599.6304 -1874.248,-818.2219 -4873.543,-1802.3888 -5702.177,-1385.1726 -1394.823,702.1905 563.592,2579.8293 563.592,2579.8293 -2335.681,-531.1235 -4047.398,-1617.6442 -4430.345,-3785.3307 -94.2856,-533.7159 -69.3086,-1227.5996 190.23,-1794.6099"
       inkscape:connector-curvature="0" />
  </g>
  <g
     inkscape:groupmode="layer"
     id="layer2"
     inkscape:label="Ebene2"
     transform="translate(-36.609525,-33.6095)" />
</svg>
